<svg width="189" height="131" viewBox="0 0 189 131" fill="none" xmlns="http://www.w3.org/2000/svg">
<path d="M116.141 120H0V0H100.835C137.926 0 168 30.1996 168 67.4451V67.9241C168 96.6866 144.783 120 116.141 120Z" fill="#FAC70F"/>
<path d="M189 70.5998C189 106.397 160.721 131 123.425 131C122.811 131 122.018 131 121.107 130.98L85 130.621V10.2195H105.828C112.466 10.1197 119.977 10 122.752 10C158.482 10 189 34.1042 189 70.5998ZM173.563 70.5998C173.563 34.623 153.448 11.5764 122.415 11.5764H98.8918V128.586C104.183 128.665 116.648 129.264 123.782 129.264C155.172 129.264 173.563 106.397 173.563 70.5998Z" fill="black"/>
</svg>
