<svg width="176" height="60" viewBox="0 0 176 60" fill="none" xmlns="http://www.w3.org/2000/svg">
<path d="M112.728 30H99.0918V53.6364H112.728V30Z" fill="#006EA4"/>
<path d="M142.742 33.9654C142.742 33.9654 142.067 43.2351 149.631 41.6316C149.631 41.6316 152.233 40.6812 154.402 37.3706L154.545 33.9113C154.545 33.9158 147.609 31.2088 142.742 33.9654Z" fill="#09A975"/>
<path d="M132.623 30.0457C130.515 30.881 122.624 34.1589 123.745 36.1754C123.793 36.2639 123.824 36.3568 123.811 36.4538C123.697 37.1625 123.38 40.2632 126.541 40.8327C127.832 41.0647 129.162 40.7568 130.267 40.0649C131.454 39.3224 133.114 38.0569 134.036 36.3778C135.245 34.1715 134.001 31.4083 133.41 30.3157C133.258 30.0457 132.919 29.9276 132.623 30.0457Z" fill="#F5841F"/>
<path d="M39.5781 37.2723H0V10.9087H36.234C44.3381 10.9087 50.9091 17.5435 50.9091 25.7262V25.8314C50.9091 32.1505 45.8364 37.2723 39.5781 37.2723Z" fill="#FAC70F"/>
<path d="M60.0013 26.3002L70.6033 26.3635C70.8575 26.3635 71.099 26.2776 71.294 26.1058C71.5651 25.8662 71.8829 25.4683 71.8067 24.9573C71.6796 24.0846 72.1838 21.8057 69.6075 19.7935C68.4591 18.8982 66.9464 18.9841 65.6286 19.3594C63.4167 19.9879 61.5014 21.5479 60.5395 23.7636C60.2132 24.5323 59.9801 25.3959 60.0013 26.3002Z" fill="#EE2524"/>
<path d="M56.4003 26.5878C56.4003 34.5137 50.1001 39.9611 41.7911 39.9611C41.6542 39.9611 41.4776 39.9611 41.2746 39.9567L33.2305 39.8771V13.219H37.8706C39.3496 13.1969 41.0229 13.1704 41.641 13.1704C49.6012 13.1704 56.4003 18.5073 56.4003 26.5878ZM52.961 26.5878C52.961 18.6222 48.4798 13.5194 41.5659 13.5194H36.3254V39.4265C37.5042 39.4442 40.2812 39.5767 41.8706 39.5767C48.8639 39.5767 52.961 34.5137 52.961 26.5878Z" fill="black"/>
<path d="M80.2808 31.2044C78.996 34.0098 77.0225 36.7931 74.4044 38.5382C74.325 38.5912 74.2411 38.6442 74.1616 38.6928C72.5236 39.7267 70.6738 40.354 68.5722 40.354C66.2588 40.354 64.2721 39.7532 62.7092 38.6928C60.2809 37.0582 58.877 34.3279 58.877 31.0851C58.877 25.5935 63.729 20.7912 68.7753 20.3008C68.7753 20.3008 70.1396 20.1771 70.9519 20.3052C70.9563 20.3052 70.9563 20.3052 70.9563 20.3052C71.623 20.3759 72.5501 20.557 73.4729 21.0032C73.5303 21.0297 73.5876 21.0562 73.6406 21.0872C73.7113 21.1225 73.7819 21.1579 73.8481 21.1976C74.0865 21.3302 74.3073 21.4759 74.506 21.6262C74.5148 21.6306 74.5236 21.635 74.5236 21.6394C74.943 21.9619 75.2786 22.3154 75.5435 22.6865C75.5479 22.6953 75.5567 22.7041 75.5611 22.7174C76.1704 23.5436 76.6163 24.6481 76.7311 26.1281C76.7311 26.1502 76.7355 26.1679 76.7355 26.1944V26.2032C76.7532 26.5655 76.7002 28.072 74.5192 28.072H61.2787C61.2169 28.5712 61.186 29.097 61.186 29.6448C61.186 34.3986 65.3228 38.1141 70.5369 38.1141C75.0402 38.1141 77.8525 35.4633 79.954 31.2044H80.2808V31.2044ZM61.3184 27.8158H72.2852C72.9077 27.8158 73.4243 27.3121 73.4199 26.6848V26.6759C73.4022 25.134 73.0623 24.0207 72.5722 23.2122C72.5634 23.2034 72.559 23.1901 72.5545 23.1857C72.0821 22.417 71.464 21.931 70.8592 21.6262C70.8239 21.6085 70.793 21.5908 70.7577 21.5776C70.6561 21.529 70.5546 21.4892 70.453 21.4494C69.9011 21.2418 69.261 21.1181 68.5325 21.1181C65.4818 21.1181 63.0182 22.5893 61.8924 25.5538C61.888 25.567 61.8791 25.5891 61.8703 25.6156C61.7776 25.8586 61.6937 26.1148 61.6231 26.3755H61.6275C61.495 26.8085 61.367 27.2944 61.367 27.5198C61.367 27.5198 61.367 27.5198 61.367 27.5242C61.3449 27.6125 61.3317 27.7141 61.3184 27.8158Z" fill="black"/>
<path d="M93.8209 34.4076C93.8209 37.8492 90.8054 40.3586 86.9026 40.3586C82.9203 40.3586 80.9909 39.3955 79.4501 38.967C79.4148 38.9581 79.3795 38.9493 79.353 38.936V34.9819C79.353 34.9819 84.2536 41.3483 90.0549 39.3911C91.4015 38.7019 91.9268 37.5046 91.9268 36.1527C91.9268 33.4842 88.9158 32.4769 85.7856 31.4343C82.5362 30.3519 79.2559 29.1149 79.2559 26.0223C79.2559 22.0372 83.1984 20.2656 86.4037 20.2656C89.5339 20.2656 90.5891 20.5616 92.7701 20.9062L92.7833 20.9107L92.8628 20.9239C92.8716 20.9239 92.8761 20.9283 92.8849 20.9283L93.0615 20.9592V21.0167V24.6439C89.4986 20.8488 85.4457 20.5749 85.0969 20.6544C85.0836 20.6588 85.0748 20.6588 85.0748 20.6588C82.6686 20.9902 81.1101 22.2184 81.1101 23.9281C81.1101 26.5568 84.1256 27.5597 87.2161 28.6421C90.4566 29.7687 93.8209 30.966 93.8209 34.4076Z" fill="black"/>
<path d="M114.541 13.1611H117.477V39.9606H114.541V27.6477H100.524L100.524 59.9999H97.5879V13.1611H100.524V27.2987H114.541V13.1611Z" fill="black"/>
<path d="M138.801 38.5163C137.812 39.3999 136.5 40.3012 135.551 40.3012C134.081 40.3012 133.344 39.2939 133.344 37.5532C133.344 36.6254 133.423 35.4282 133.503 34.6197C132.686 36.3206 129.136 40.341 125.927 40.341C122.801 40.341 120.902 38.3705 120.902 36.0069C120.902 33.4577 123.335 30.9527 130.218 28.218C130.328 28.1694 130.448 28.1296 130.562 28.081L131.092 27.8734C131.154 27.8513 131.207 27.8248 131.264 27.8027C132.589 27.2372 133.538 25.9383 133.582 24.4141C133.587 24.3744 133.587 24.3302 133.587 24.286V24.1932C133.587 24.1181 133.582 24.043 133.573 23.9723C133.578 23.9591 133.573 23.9458 133.573 23.937C133.564 23.853 133.556 23.7735 133.542 23.694C133.542 23.6763 133.538 23.6586 133.534 23.6365V23.6365C133.52 23.557 133.507 23.4775 133.481 23.398C133.463 23.3273 133.445 23.2566 133.419 23.1903C133.273 22.6867 133.021 22.2272 132.681 21.834C132.659 21.8031 132.629 21.7722 132.602 21.7412C132.518 21.6485 132.456 21.5822 132.434 21.5601C132.425 21.5513 132.421 21.5468 132.421 21.5468C132.417 21.5424 132.412 21.538 132.408 21.5336C132.099 21.2022 131.737 20.9637 131.317 20.8135C130.832 20.6279 130.275 20.5484 129.631 20.5484C129.357 20.5484 129.101 20.566 128.858 20.6058C128.849 20.6058 128.84 20.6058 128.832 20.6102C128.677 20.6323 128.536 20.6632 128.395 20.703C127.869 20.84 127.432 21.0609 127.044 21.3613C125.732 22.3686 125.229 23.99 124.646 24.8427L122.712 22.8281C123.878 22.0726 125.997 20.9637 128.156 20.4644C128.284 20.4291 130.218 19.9299 132.289 20.354H132.266C134.62 20.8002 136.364 22.1521 136.509 23.7514C136.514 23.7603 136.514 23.7691 136.514 23.7779C136.518 23.7912 136.523 23.8 136.523 23.8133C136.792 26.0267 133.803 27.1223 133.803 27.1223L130.637 28.4742C124.96 30.8732 123.604 32.0351 123.604 34.8936C123.604 36.9789 125.459 38.6445 127.816 38.6445C130.478 38.6445 133.185 35.0836 133.534 33.8068C133.534 33.8068 133.94 32.6669 135.26 32.5874C136.576 32.5079 136.487 33.904 136.487 33.904C136.452 34.6594 136.425 35.2868 136.425 35.7021C136.425 37.9066 136.699 38.9846 137.511 38.9846C137.838 38.9846 138.218 38.6975 138.575 38.2999L138.801 38.5163Z" fill="black"/>
<path d="M157.297 0V40.0314H154.361V36.1966C152.405 38.7899 150.211 40.3495 147.257 40.3495C143.778 40.3495 140.957 38.5735 140.957 32.5031V20.5525H143.853V32.8919C143.893 37.6854 146.171 39.192 148.533 39.192C150.961 39.192 152.546 38.1493 154.361 35.6841V0H157.297Z" fill="black"/>
<path d="M175.655 34.4076C175.655 37.8492 172.639 40.3586 168.737 40.3586C164.759 40.3586 162.825 39.3955 161.284 38.967C161.249 38.9581 161.213 38.9493 161.187 38.936V34.9819C161.187 34.9819 166.088 41.3483 171.889 39.3911C173.235 38.7019 173.761 37.5046 173.761 36.1527C173.761 33.4842 170.75 32.4769 167.62 31.4343C164.37 30.3519 161.09 29.1149 161.09 26.0223C161.09 22.0372 165.032 20.2656 168.238 20.2656C171.368 20.2656 172.423 20.5616 174.604 20.9062L174.617 20.9107L174.697 20.9239C174.706 20.9239 174.71 20.9283 174.719 20.9283L174.895 20.9592V21.0167V24.6439C171.333 20.8488 167.28 20.5749 166.931 20.6544C166.918 20.6588 166.909 20.6588 166.909 20.6588C164.503 20.9902 162.944 22.2184 162.944 23.9281C162.944 26.5568 165.96 27.5597 169.05 28.6421C172.295 29.7687 175.655 30.966 175.655 34.4076Z" fill="black"/>
</svg>
