<svg width="98" height="909" viewBox="0 0 98 909" fill="none" xmlns="http://www.w3.org/2000/svg">
<g clip-path="url(#clip0_566:935)">
<path d="M97.0978 83.8029L96.1391 101.421C87.9632 105.111 73.8724 107.987 57.5207 107.987C24.8352 107.987 0 85.2319 0 54.1562C0 22.4294 26.7525 0 57.991 0C70.8155 0 87.6376 3.03883 95.7954 6.72883L96.7541 24.0393C89.8806 12.499 75.627 2.73133 62.1693 1.60985C60.7223 1.60985 59.6008 1.44706 58.3165 1.44706C31.0756 1.44706 13.6205 22.9178 13.6205 54.1562C13.6205 85.2319 29.6467 106.54 57.1951 106.54C60.2339 106.54 63.128 106.54 66.0041 105.744C66.6371 105.744 67.1255 105.581 67.7586 105.418C67.9214 105.418 68.0842 105.418 68.0842 105.418C71.937 104.46 75.4461 103.013 78.503 101.258C90.5317 94.3664 97.0978 83.8029 97.0978 83.8029Z" fill="black"/>
<path d="M49.8331 189.384C71.3039 189.384 87.1673 204.289 87.1673 227.677C87.1673 248.659 68.5906 268.05 47.4274 268.05C25.4682 268.05 9.93042 252.349 9.93042 230.245C9.93042 208.467 26.5897 189.384 49.8331 189.384ZM22.4294 227.677C22.4294 243.703 31.0756 266.295 49.9959 266.295C69.7121 266.295 74.8311 246.579 74.8311 230.082C74.8311 211.18 64.7378 190.831 48.0786 190.831C30.4425 190.831 22.4294 205.573 22.4294 227.677Z" fill="black"/>
<path d="M27.4039 350.912V399.298C27.5667 418.038 36.5384 423.971 45.673 423.971C55.2779 423.971 61.5364 419.973 68.5908 410.187V350.912H80.1311V427.335H68.5908V412.267C60.9033 422.361 52.4018 428.619 40.7168 428.619C27.0964 428.619 16.0444 421.565 16.0444 397.851V350.912H27.4039Z" fill="black"/>
<path d="M30.0444 560.012V511.301H41.2591V530.854C49.7425 519.151 61.7712 511.301 72.3347 511.301H73.7818V522.19C69.2959 521.231 63.8513 519.947 57.7556 519.947C47.3368 519.947 41.2591 530.528 41.2591 553.916V562.092C41.2591 577.956 41.4219 587.416 41.4219 587.416H30.0444C29.8816 570.268 29.8816 563.702 29.8816 563.702V562.092C29.8816 562.092 29.8816 561.278 30.0444 560.012Z" fill="black"/>
<path d="M77.5445 725.683C77.5445 739.141 65.6967 749.071 50.3035 749.071C34.7657 749.071 27.241 745.219 21.1453 743.627C20.9825 743.464 20.8197 743.464 20.6569 743.464V727.926C20.6569 727.926 35.0732 746.666 53.8308 746.666C56.7068 746.666 59.6009 746.177 62.6397 745.219C67.9215 742.505 70.0017 737.857 70.0017 732.557C70.0017 721.975 58.2986 717.978 45.9624 713.962C33.1378 709.802 20.3313 704.827 20.3313 692.817C20.3313 677.116 35.8691 670.225 48.3681 670.225C60.7043 670.225 64.7018 671.346 73.3661 672.793H73.6917H73.8545L74.4875 672.956V673.119V687.372C66.9628 679.359 54.6266 671.834 43.2491 671.834C33.789 673.119 27.5485 677.93 27.5485 684.659C27.5485 694.915 39.3963 698.913 51.5878 703.091C64.2496 707.577 77.5445 712.226 77.5445 725.683Z" fill="black"/>
<path d="M91.7979 873.102C83.6221 891.534 68.4098 908.99 45.8176 908.99C24.184 908.99 7.85034 895.206 7.85034 872.614C7.85034 850.185 28.5252 830.324 51.5878 830.324C65.2082 830.324 77.056 838.5 77.87 853.242C77.87 853.404 77.87 853.404 77.87 853.567C78.0328 855.014 77.87 860.929 69.2238 860.929H17.3105C17.1477 862.846 16.9849 864.927 16.9849 867.025C16.9849 885.764 33.1739 900.181 53.6679 900.181C71.2859 900.181 82.3378 889.925 90.5137 873.102H91.7979V873.102ZM17.4552 859.808H60.3967C62.9653 859.808 64.8826 857.89 64.8826 855.485V855.322C64.8826 847.797 62.1513 839.133 54.4638 835.461C52.2208 834.014 48.2233 833.543 45.6548 833.543C31.2385 833.543 22.8998 841.068 18.5767 854.218C18.0883 855.973 17.618 857.746 17.618 858.704C17.618 858.994 17.4552 859.482 17.4552 859.808Z" fill="black"/>
</g>
<defs>
<clipPath id="clip0_566:935">
<rect width="97.0978" height="908.989" fill="white"/>
</clipPath>
</defs>
</svg>
